<svg version="1.1" id="Uploaded to svgrepo.com" xmlns="http://www.w3.org/2000/svg" xmlns:xlink="http://www.w3.org/1999/xlink" x="0px" y="0px"
	 width="32px" height="32px" viewBox="0 0 32 32" style="enable-background:new 0 0 32 32;" xml:space="preserve">
<style type="text/css">
	.sharpcorners_een{fill:#000000;}
	.st0{fill:#0B1719;}
</style>
<path class="sharpcorners_een" d="M10,6l6,2l-6,2l-2,6l-2-6L0,8l6-2l2-6L10,6z M6,22l-1,3l-3,1l3,1l1,3l1-3l3-1l-3-1L6,22z M26,2
	l-1,3l-3,1l3,1l1,3l1-3l3-1l-3-1L26,2z M20,8l-3,9l-9,3l9,3l3,9l4-9l8-3l-9-3L20,8z"/>
</svg>